# AST/ASF file generated using VICON BodyLanguage
# -----------------------------------------------
:version 1.10
:name VICON
:units
  mass 1.0
  length 0.45
  angle deg
:documentation
   .ast/.asf automatically generated from VICON data using
   VICON BodyBuilder and BodyLanguage model FoxedUp or BRILLIANT.MOD
:root
   order TX TY TZ RX RY RZ
   axis XYZ
   position 0 0 0  
   orientation 0 0 0 
:bonedata
  begin
     id 1 
     name lhipjoint
     direction 0.603808 -0.713975 0.35448 
     length 2.2025 
     axis 0 0 0  XYZ
  end
  begin
     id 2 
     name lfemur
     direction 0.34202 -0.939693 0  
     length 6.55877  
     axis 0 0 20  XYZ
    dof rx ry rz
    limits (-160.0 20.0)
           (-70.0 70.0)
           (-60.0 70.0)
  end
  begin
     id 3 
     name ltibia
     direction 0.34202 -0.939693 0   
     length 6.80302   
     axis 0 0 20   XYZ
    dof rx
    limits (-10.0 170.0)
  end
  begin
     id 4 
     name lfoot
     direction 0.091848 -0.25235 0.963267   
     length 2.03446   
     axis -90 7.62852e-016 20   XYZ
    dof rx rz
    limits (-45.0 90.0)
           (-70.0 20.0)
  end
  begin
     id 5 
     name ltoes
     direction 1.53608e-011 -4.21925e-011 1   
     length 1.02033   
     axis -90 7.62852e-016 20   XYZ
    dof rx
    limits (-90.0 20.0)
  end
  begin
     id 6 
     name rhipjoint
     direction -0.587285 -0.724947 0.359928   
     length 2.16916  
     axis 0 0 0  XYZ 
  end
  begin
     id 7 
     name rfemur
     direction -0.34202 -0.939693 0   
     length 6.43173   
     axis 0 0 -20   XYZ
    dof rx ry rz
    limits (-160.0 20.0)
           (-70.0 70.0)
           (-70.0 60.0)
  end
  begin
     id 8 
     name rtibia
     direction -0.34202 -0.939693 0   
     length 6.70662   
     axis 0 0 -20   XYZ
    dof rx
    limits (-10.0 170.0)
 end
 begin
     id 9 
     name rfoot
     direction -0.11854 -0.325686 0.938018   
     length 2.0773  
     axis -90 -7.62852e-016 -20   XYZ
    dof rx rz
    limits (-45.0 90.0)
           (-20.0 70.0)
  end
  begin
     id 10 
     name rtoes
     direction -1.53547e-011 -4.21838e-011 1   
     length 1.03267   
     axis -90 -7.62852e-016 -20   XYZ
    dof rx
    limits (-90.0 20.0)
  end
  begin
     id 11 
     name lowerback
     direction -0.0286554 0.999539 0.0100613   
     length 2.08751   
     axis 0 0 0   XYZ
    dof rx ry rz
    limits (-20.0 45.0)
           (-30.0 30.0)
           (-30.0 30.0)
  end
  begin
     id 12 
     name upperback
     direction 0.0227093 0.999705 -0.00860929   
     length 2.08517   
     axis 0 0 0   XYZ
    dof rx ry rz
    limits (-20.0 45.0)
           (-30.0 30.0)
           (-30.0 30.0)
  end
  begin
     id 13 
     name thorax
     direction 0.0351627 0.999285 -0.013892   
     length 2.08412   
     axis 0 0 0   XYZ
    dof rx ry rz
    limits (-20.0 45.0)
           (-30.0 30.0)
           (-30.0 30.0)
  end
  begin
     id 14 
     name lowerneck
     direction -0.0696283 0.997344 0.0213922   
     length 1.44164   
     axis 0 0 0   XYZ
    dof rx ry rz
    limits (-20.0 45.0)
           (-30.0 30.0)
           (-30.0 30.0)
  end
  begin
     id 15 
     name upperneck
     direction 0.0531 0.990412 -0.127531   
     length 1.45022   
     axis 0 0 0   XYZ
    dof rx ry rz
    limits (-20.0 45.0)
           (-30.0 30.0)
           (-30.0 30.0)
  end
  begin
     id 16
     name head
     direction 0.0188154 0.998548 -0.0504727  
     length 1.45845  
     axis 0 0 0   XYZ
    dof rx ry rz
    limits (-20.0 45.0)
           (-30.0 30.0)
           (-30.0 30.0)
  end
  begin
     id 17 
     name lclavicle
     direction 0.961559 0.260051 0.088188  
     length 2.86057  
     axis 0 0 0   XYZ
    dof ry rz
    limits (-20.0 10.0)
           (0.0 20.0)
  end
  begin
     id 18 
     name lhumerus
     direction 1 -4.48959e-011 2.88185e-027   
     length 4.36901   
     axis 180 -30 -90   XYZ
    dof rx ry rz
    limits (-60.0 90.0)
           (-90.0 90.0)
           (-90.0 90.0)
  end
  begin
     id 19
     name lradius
     direction 1 -4.48965e-011 -3.92618e-028   
     length 3.21737   
     axis 180 -30 -90   XYZ
    dof rx
    limits (-10.0 170.0)
  end
  begin
     id 20
     name lwrist
     direction 1 -4.49037e-011 2.57246e-027   
     length 1.60869   
     axis -1.61769e-015 90 90   XYZ
    dof ry
    limits (-180.0 0.0)
 end
  begin
     id 21 
     name lhand
     direction 1 -4.48807e-011 5.12958e-027   
     length 0.564313   
     axis -3.27988e-015 90 90   XYZ
    dof rx rz
    limits (-90.0 90.0)
           (-45.0 45.0)
  end
  begin
     id 22 
     name lfingers
     direction 1 -4.48879e-011 1.02687e-026   
     length 0.454963   
     axis -6.5598e-015 90 90   XYZ
    dof rx
    limits (0.0 90.0)
  end
  begin
     id 23
     name lthumb
     direction 0.707107 -6.3475e-011 0.707107   
     length 0.653239   
     axis -90 45 2.19363e-014   XYZ
    dof rx rz
    limits (-45.0 45.0)
           (-45.0 45.0)
  end
  begin
     id 24 
     name rclavicle
     direction -0.954677 0.253915 0.155304   
     length 3.11497  
     axis 0 0 0   XYZ 
    dof ry rz
    limits (-10.0 20.0)
           (-20.0 0.0)
  end
  begin
     id 25 
     name rhumerus
     direction -1 -4.48958e-011 -8.20169e-028  
     length 4.34118   
     axis 180 30 90   XYZ
    dof rx ry rz
    limits (-90.0 60.0)
           (-90.0 90.0)
           (-90.0 90.0)
  end
  begin
     id 26 
     name rradius
     direction -1 -4.48978e-011 1.5676e-027   
     length 3.09531   
     axis 180 30 90   XYZ
    dof rx
    limits (-10.0 170.0)
  end
  begin
     id 27 
     name rwrist
     direction -1 -4.49001e-011 2.57123e-027   
     length 1.54765   
     axis -1.61769e-015 -90 -90   XYZ
    dof ry
    limits (-180.0 0.0)
  end
  begin
     id 28
     name rhand
     direction -1 -4.48847e-011 5.13225e-027   
     length 0.597446   
     axis -3.27988e-015 -90 -90   XYZ
    dof rx rz
    limits (-90.0 90.0)
           (-45.0 45.0)
  end
  begin
     id 29
     name rfingers
     direction -1 -4.49094e-011 1.02974e-026   
     length 0.481677   
     axis -6.5598e-015 -90 -90   XYZ
    dof rx
    limits (0.0 90.0)
  end
  begin
     id 30
     name rthumb
     direction -0.707107 -6.34859e-011 0.707107   
     length 0.691594   
     axis -90 -45 -2.19363e-014   XYZ
    dof rx rz
    limits (-45.0 45.0)
           (-45.0 45.0)
  end
:hierarchy
  begin
    root lhipjoint rhipjoint lowerback
    lhipjoint lfemur
    lfemur ltibia
    ltibia lfoot
    lfoot ltoes
    rhipjoint rfemur
    rfemur rtibia
    rtibia rfoot
    rfoot rtoes
    lowerback upperback
    upperback thorax
    thorax lowerneck lclavicle rclavicle
    lowerneck upperneck
    upperneck head
    lclavicle lhumerus
    lhumerus lradius
    lradius lwrist
    lwrist lhand lthumb
    lhand lfingers
    rclavicle rhumerus
    rhumerus rradius
    rradius rwrist
    rwrist rhand rthumb
    rhand rfingers
  end

#!OML:ASF I:\Acrobat_Osman\acrobat\cartwheel_test 2\Patient 1\Session 1\acrobat.ASF
:FULLY-SPECIFIED
:DEGREES
625
root 8.98125 26.3893 28.2975 -348.534 -163.903 -2.03436
lowerback -2.275 5.54197 -7.1695
upperback -0.48993 7.48486 -1.97761
thorax 0.112088 3.70648 2.06488
lowerneck -10.6243 1.0625 -0.632703
upperneck 15.8003 2.39501 -7.18908
head 6.65609 0.351871 -2.01055
rclavicle 2.60408e-014 -3.85642e-014
rhumerus -23.8678 31.5155 -105.83
rradius 64.731
rwrist -27.3179
rhand -26.4496 -700.621
rfingers 7.12502
rthumb 0.111544 -10.6005
lclavicle 2.60408e-014 -3.85642e-014
lhumerus -221.282 203.117 274.157
lradius 79.8488
lwrist -334.594
lhand -32.1157 46.9147
lfingers 7.12502
lthumb -5.36047 76.8269
rfemur -18.4318 12.3729 23.4563
rtibia 39.7114
rfoot -44.3406 -30.9191
rtoes 11.1524
lfemur -24.8935 -2.77418 -20.9805
ltibia 42.9737
lfoot -27.3077 8.50465
ltoes -20.4716
626
root 8.98925 26.3986 28.3772 -348.731 -165.602 -1.87548
lowerback -2.35816 5.38846 -6.70086
upperback -0.344821 7.29702 -1.78536
thorax 0.358789 3.60865 2.02874
lowerneck -10.881 0.905935 -0.959033
upperneck 16.9317 2.10361 -6.13261
head 7.03839 0.23501 -1.65341
rclavicle -5.11871e-015 3.24019e-014
rhumerus -25.4562 31.7176 -107.97
rradius 67.0005
rwrist -32.6656
rhand -28.1304 -701.823
rfingers 7.12502
rthumb -1.51186 -11.7973
lclavicle -5.11871e-015 3.24019e-014
lhumerus -220.69 206.472 276.665
lradius 80.1888
lwrist -336.438
lhand -31.7807 46.0234
lfingers 7.12502
lthumb -5.03702 75.9435
rfemur -18.7776 12.2523 23.0609
rtibia 39.6801
rfoot -43.0846 -29.632
rtoes 10.143
lfemur -24.9901 -2.52537 -21.1554
ltibia 43.1079
lfoot -26.7772 9.73758
ltoes -19.2339
627
root 8.98857 26.418 28.473 -348.898 -166.889 -1.56585
lowerback -2.15489 5.32266 -5.7334
upperback -0.282288 7.18498 -1.75608
thorax 0.434257 3.55636 1.52277
lowerneck -10.8482 0.706153 -0.95347
upperneck 17.6573 1.654 -5.06125
head 7.24244 0.0937062 -1.35473
rclavicle 2.03257e-014 -6.95746e-015
rhumerus -27.0123 31.7756 -109.745
rradius 69.3888
rwrist -39.4039
rhand -29.328 -701.541
rfingers 7.12502
rthumb -2.66851 -11.5041
lclavicle 2.03257e-014 -6.95746e-015
lhumerus -220.441 210.784 279.187
lradius 80.8828
lwrist -339.027
lhand -33.1986 47.5377
lfingers 7.12502
lthumb -6.40592 77.4208
rfemur -19.2501 10.6202 22.8406
rtibia 39.6518
rfoot -40.7643 -27.6886
rtoes 7.76434
lfemur -25.2084 -2.50275 -21.1415
ltibia 43.2164
lfoot -26.3385 10.8976
ltoes -17.4685
628
root 8.98279 26.44 28.5671 -349.076 -168.391 -1.20622
lowerback -1.96585 5.35612 -4.77802
upperback -0.229571 7.20902 -1.7184
thorax 0.494199 3.57327 1.03213
lowerneck -10.54 0.560975 -0.59505
upperneck 17.9868 1.2589 -4.41819
head 7.2804 -0.0207823 -1.24465
rclavicle 3.59303e-014 2.36554e-014
rhumerus -28.4948 31.9755 -111.11
rradius 71.7402
rwrist -46.4547
rhand -29.4494 -702.097
rfingers 7.12502
rthumb -2.78573 -12.059
lclavicle 3.59303e-014 2.36554e-014
lhumerus -220.342 214.766 281.645
lradius 81.6519
lwrist -341.679
lhand -34.5945 48.8361
lfingers 7.12502
lthumb -7.7534 78.6739
rfemur -19.7124 9.2643 22.717
rtibia 39.6229
rfoot -38.498 -25.8359
rtoes 5.14746
lfemur -25.3588 -2.30408 -21.1069
ltibia 43.3001
lfoot -26.0901 12.1609
ltoes -15.8281
629
root 8.98803 26.46 28.6568 -349.266 -170.033 -1.09158
lowerback -2.1434 5.30089 -4.86065
upperback 0.0390517 7.17084 -1.20155
thorax 0.796002 3.55053 1.63442
lowerneck -10.0878 0.462777 -0.533002
upperneck 18.31 1.05586 -4.37179
head 7.30013 -0.129366 -1.26299
rclavicle -3.01283e-014 2.38542e-015
rhumerus -29.9592 33.2863 -111.589
rradius 73.9991
rwrist -53.323
rhand -28.7838 -703.778
rfingers 7.12502
rthumb -2.14293 -13.7472
lclavicle -3.01283e-014 2.38542e-015
lhumerus -219.775 217.596 284.324
lradius 82.1245
lwrist -344.299
lhand -35.1855 48.4558
lfingers 7.12502
lthumb -8.32381 78.2718
rfemur -20.0769 9.44468 22.4778
rtibia 39.6284
rfoot -37.0805 -25.2095
rtoes 3.133
lfemur -25.3462 -1.84909 -21.2775
ltibia 43.2794
lfoot -25.8727 13.2083
ltoes -14.8034
630
root 8.99793 26.4713 28.7284 -349.183 -172.149 -1.17303
lowerback -3.62486 5.13147 -6.25392
upperback 0.674722 7.11786 0.0590302
thorax 1.95732 3.47253 3.8623
lowerneck -9.25324 0.516212 -1.40043
upperneck 18.3588 1.23437 -4.69706
head 7.17162 -0.157351 -1.21094
rclavicle -2.63887e-014 1.23246e-014
rhumerus -31.4998 36.325 -110.925
rradius 76.3449
rwrist -59.8597
rhand -27.8447 -706.141
rfingers 7.12502
rthumb -1.23595 -16.1167
lclavicle -2.63887e-014 1.23246e-014
lhumerus -218.063 219.155 287.203
lradius 81.8395
lwrist -347.324
lhand -35.6378 47.7252
lfingers 7.12502
lthumb -8.76027 77.5234
rfemur -20.7395 10.4187 22.0024
rtibia 39.726
rfoot -36.0348 -24.8333
rtoes 2.11871
lfemur -25.4666 -0.729435 -21.6508
ltibia 43.163
lfoot -25.7066 13.9752
ltoes -14.4325
631
root 9.01237 26.4766 28.8048 -349.258 -173.797 -1.48304
lowerback -3.17165 5.83394 -5.593
upperback 0.451598 7.98682 -1.07694
thorax 1.62817 3.92208 2.30537
lowerneck -9.06508 -0.0563519 0.661115
upperneck 19.3227 -0.0303676 -4.05197
head 7.41922 -0.58341 -1.46872
rclavicle -1.06554e-014 -1.35515e-014
rhumerus -31.7683 35.1838 -111.965
rradius 78.3089
rwrist -64.8471
rhand -29.2266 -703.78
rfingers 7.12502
rthumb -2.57054 -13.7447
lclavicle -1.06554e-014 -1.35515e-014
lhumerus -218.156 224.984 288.563
lradius 81.4953
lwrist -349.213
lhand -36.4517 47.3237
lfingers 7.12502
lthumb -9.54564 77.0875
rfemur -21.2067 11.155 21.3979
rtibia 39.8937
rfoot -35.5645 -24.3245
rtoes 2.60443
lfemur -25.4349 0.2497 -22.1699
ltibia 43.0082
lfoot -25.5263 14.366
ltoes -14.112
632
root 9.00771 26.4705 28.884 -350.217 -174.315 -1.87874
lowerback -1.59316 6.25343 -4.55566
upperback 0.372565 8.39288 -2.11163
thorax 0.936606 4.14279 0.524005
lowerneck -8.7306 -0.615924 2.5243
upperneck 20.2977 -1.31249 -3.37959
head 7.63651 -1.02776 -1.69016
rclavicle 2.96189e-014 -1.78906e-014
rhumerus -31.8626 34.1904 -112.705
rradius 80.0791
rwrist -69.3574
rhand -30.4034 -702.001
rfingers 7.12502
rthumb -3.70698 -11.948
lclavicle 2.96189e-014 -1.78906e-014
lhumerus -220.012 230.151 291.222
lradius 81.3185
lwrist -351.456
lhand -38.8838 51.4583
lfingers 7.12502
lthumb -11.8916 81.1006
rfemur -20.5975 11.2089 20.8876
rtibia 40.0796
rfoot -35.7892 -23.7278
rtoes 4.2926
lfemur -24.5138 -0.565235 -22.7188
ltibia 42.8927
lfoot -25.397 15.3692
ltoes -13.2442
633
root 9.00563 26.4645 28.9527 -350.773 -174.839 -1.89826
lowerback -1.58218 5.76276 -4.74299
upperback 0.837175 7.77149 -1.45353
thorax 1.31862 3.82272 1.3132
lowerneck -8.66105 -0.542634 1.98151
upperneck 21.1102 -1.24555 -3.22796
head 7.90043 -1.06258 -1.56062
rclavicle 5.93869e-014 -1.6201e-014
rhumerus -32.3658 36.6543 -111.998
rradius 81.8349
rwrist -75.3023
rhand -30.5264 -700.569
rfingers 7.12502
rthumb -3.82579 -10.5144
lclavicle 5.93869e-014 -1.6201e-014
lhumerus -219.239 231.064 293.024
lradius 79.9762
lwrist -355.357
lhand -40.1767 53.51
lfingers 7.12502
lthumb -13.1381 83.0761
rfemur -20.4139 10.9715 20.7828
rtibia 40.1936
rfoot -35.585 -22.9722
rtoes 5.20985
lfemur -24.0931 -0.716227 -22.8165
ltibia 42.8285
lfoot -25.2723 15.8153
ltoes -12.4646
